<svg width="17" height="17" viewBox="0 0 17 17" fill="none" xmlns="http://www.w3.org/2000/svg">
<g id="email">
<path id="Vector" d="M13.6666 3.16675H2.99997C2.26664 3.16675 1.67331 3.76675 1.67331 4.50008L1.66664 12.5001C1.66664 13.2334 2.26664 13.8334 2.99997 13.8334H13.6666C14.4 13.8334 15 13.2334 15 12.5001V4.50008C15 3.76675 14.4 3.16675 13.6666 3.16675ZM13.4 6.00008L8.68664 8.94675C8.47331 9.08008 8.19331 9.08008 7.97997 8.94675L3.26664 6.00008C3.09997 5.89341 2.99997 5.71341 2.99997 5.52008C2.99997 5.07341 3.48664 4.80675 3.86664 5.04008L8.33331 7.83342L12.8 5.04008C13.18 4.80675 13.6666 5.07341 13.6666 5.52008C13.6666 5.71341 13.5666 5.89341 13.4 6.00008Z" fill="white"/>
</g>
</svg>
