<svg width="48" height="48" viewBox="0 0 48 48" fill="none" xmlns="http://www.w3.org/2000/svg">
<g id="Cyber Security">
<path id="Vector" d="M23.8471 27.7701C25.8794 27.7701 27.527 26.1225 27.527 24.0902C27.527 22.0579 25.8794 20.4104 23.8471 20.4104C21.8148 20.4104 20.1673 22.0579 20.1673 24.0902C20.1673 26.1225 21.8148 27.7701 23.8471 27.7701Z" fill="#ffffff"/>
<path id="Vector_2" d="M23.8471 25.478C24.6136 25.478 25.235 24.8567 25.235 24.0902C25.235 23.3237 24.6136 22.7024 23.8471 22.7024C23.0807 22.7024 22.4593 23.3237 22.4593 24.0902C22.4593 24.8567 23.0807 25.478 23.8471 25.478Z" fill="#171717"/>
<path id="Vector_3" d="M4.80835 35.0974C5.58664 35.0974 6.21756 34.4664 6.21756 33.6881C6.21756 32.9099 5.58664 32.2789 4.80835 32.2789C4.03006 32.2789 3.39913 32.9099 3.39913 33.6881C3.39913 34.4664 4.03006 35.0974 4.80835 35.0974Z" fill="#ffffff"/>
<path id="Vector_4" d="M44.4918 24.0902C45.0554 24.0902 45.5124 23.6333 45.5124 23.0697C45.5124 22.5061 45.0554 22.0492 44.4918 22.0492C43.9282 22.0492 43.4713 22.5061 43.4713 23.0697C43.4713 23.6333 43.9282 24.0902 44.4918 24.0902Z" fill="#ffffff"/>
<path id="Vector_5" d="M15.2483 4.92727C15.812 4.92727 16.2689 4.47037 16.2689 3.90675C16.2689 3.34313 15.812 2.88623 15.2483 2.88623C14.6847 2.88623 14.2278 3.34313 14.2278 3.90675C14.2278 4.47037 14.6847 4.92727 15.2483 4.92727Z" fill="#ffffff"/>
<path id="Vector_6" d="M20.1475 45.1138C20.7111 45.1138 21.168 44.6569 21.168 44.0933C21.168 43.5297 20.7111 43.0728 20.1475 43.0728C19.5839 43.0728 19.127 43.5297 19.127 44.0933C19.127 44.6569 19.5839 45.1138 20.1475 45.1138Z" fill="#ffffff"/>
<path id="Vector_7" d="M29.8843 29.6989C34.8917 27.9456 38.3758 24.6556 38.5724 24.467C38.6751 24.3686 38.7331 24.2326 38.7331 24.0905C38.7331 23.9483 38.6751 23.8123 38.5724 23.7139C38.3768 23.5262 34.927 20.2681 29.96 18.5083L33.2345 15.2339C33.3669 15.1014 33.3669 14.8869 33.2345 14.7544C33.1021 14.622 32.8873 14.622 32.7548 14.7544L29.2614 18.2479C29.2919 18.2609 29.3156 18.285 29.3448 18.3007C27.6509 17.7582 25.7981 17.4008 23.8473 17.4008C21.9361 17.4008 20.1195 17.7444 18.4538 18.2684L14.9398 14.7544C14.8073 14.622 14.5926 14.622 14.4601 14.7544C14.3277 14.8869 14.3277 15.1014 14.4601 15.2339L17.7346 18.5083C12.7676 20.2681 9.31797 23.5262 9.12232 23.7139C9.01965 23.8123 8.9617 23.9483 8.9617 24.0905C8.9617 24.2326 9.01965 24.3686 9.12232 24.467C9.31899 24.6556 12.8029 27.9455 17.8104 29.6988L14.4601 33.0492C14.3277 33.1817 14.3277 33.3962 14.4601 33.5286C14.5925 33.6611 14.8073 33.6611 14.9398 33.5286L18.5317 29.9367C20.1762 30.4469 21.9658 30.7801 23.8473 30.7801C25.7288 30.7801 27.5185 30.4469 29.1629 29.9367L32.7548 33.5286C32.8873 33.6611 33.1021 33.6611 33.2345 33.5286C33.3669 33.3962 33.3669 33.1817 33.2345 33.0492L29.8843 29.6989ZM28.0035 29.1602C29.4695 27.9563 30.4066 26.131 30.4066 24.0905C30.4066 22.0451 29.4647 20.2165 27.9928 19.0126C32.6011 20.2253 36.2289 23.0641 37.4268 24.0905C36.2301 25.1159 32.6061 27.9463 28.0035 29.1602ZM23.8473 18.3139C27.0326 18.3139 29.624 20.9052 29.624 24.0905C29.624 27.2757 27.0326 29.867 23.8473 29.867C20.6621 29.867 18.0707 27.2757 18.0707 24.0905C18.0707 20.9052 20.6621 18.3139 23.8473 18.3139ZM19.711 19.0059C18.234 20.2096 17.2881 22.041 17.2881 24.0905C17.2881 26.1381 18.2322 27.9682 19.7069 29.172C15.0948 27.9613 11.4663 25.1173 10.268 24.0905C11.4666 23.0632 15.0975 20.2173 19.711 19.0059ZM7.41253 13.5156H13.3217C13.509 13.5156 13.6608 13.3637 13.6608 13.1765V7.26742C13.6608 7.08018 13.509 6.92834 13.3217 6.92834H7.41253C7.22528 6.92834 7.07345 7.08018 7.07345 7.26742V13.1765C7.07345 13.3637 7.22528 13.5156 7.41253 13.5156ZM7.75161 7.6065H12.9826V12.8374H7.75161V7.6065ZM40.6957 6.92834H34.7865C34.5993 6.92834 34.4474 7.08018 34.4474 7.26742V13.1765C34.4474 13.3637 34.5993 13.5156 34.7865 13.5156H40.6957C40.8829 13.5156 41.0348 13.3637 41.0348 13.1765V7.26742C41.0348 7.08018 40.8829 6.92834 40.6957 6.92834ZM40.3566 12.8374H35.1256V7.6065H40.3566V12.8374ZM13.3217 34.4103H7.41253C7.22528 34.4103 7.07345 34.5622 7.07345 34.7494V40.6587C7.07345 40.846 7.22529 40.9978 7.41253 40.9978H13.3217C13.509 40.9978 13.6608 40.846 13.6608 40.6587V34.7494C13.6608 34.5622 13.509 34.4103 13.3217 34.4103ZM12.9826 40.3196H7.75161V35.0885H12.9826L12.9826 40.3196ZM40.6957 34.4103H34.7865C34.5993 34.4103 34.4474 34.5622 34.4474 34.7494V40.6587C34.4474 40.846 34.5993 40.9978 34.7865 40.9978H40.6957C40.8829 40.9978 41.0348 40.846 41.0348 40.6587V34.7494C41.0348 34.5622 40.8829 34.4103 40.6957 34.4103ZM40.3566 40.3196H35.1256V35.0885H40.3566V40.3196Z" fill="#ffffff"/>
<path id="Vector_8" d="M23.6103 15.5311C23.6765 15.5973 23.7631 15.6302 23.8499 15.6302C23.9366 15.6302 24.0235 15.5971 24.0897 15.5308L26.3907 13.2299C26.523 13.0974 26.523 12.8829 26.3907 12.7504C26.2582 12.618 26.0434 12.618 25.911 12.7504L23.8496 14.8116L21.7834 12.7502C21.6507 12.6174 21.4359 12.6179 21.3037 12.7507C21.1715 12.8832 21.1717 13.0979 21.3042 13.2301L23.6103 15.5311ZM24.0844 32.6496C23.9519 32.5172 23.7374 32.5174 23.6049 32.6499L21.304 34.9508C21.1716 35.0833 21.1716 35.2978 21.304 35.4303C21.4364 35.5628 21.6512 35.5628 21.7837 35.4303L23.845 33.3691L25.9112 35.4305C26.0435 35.5629 26.2588 35.5627 26.3909 35.43C26.5231 35.2976 26.5229 35.0828 26.3904 34.9506L24.0844 32.6496Z" fill="#ffffff"/>
</g>
</svg>
