<svg width="17" height="17" viewBox="0 0 17 17" fill="none" xmlns="http://www.w3.org/2000/svg">
<g id="ping">
<path id="Vector" d="M8.33331 1.83325C5.75331 1.83325 3.66664 3.91992 3.66664 6.49992C3.66664 9.27992 6.61331 13.1133 7.82664 14.5733C8.09331 14.8933 8.57997 14.8933 8.84664 14.5733C10.0533 13.1133 13 9.27992 13 6.49992C13 3.91992 10.9133 1.83325 8.33331 1.83325ZM8.33331 8.16658C7.41331 8.16658 6.66664 7.41992 6.66664 6.49992C6.66664 5.57992 7.41331 4.83325 8.33331 4.83325C9.25331 4.83325 9.99997 5.57992 9.99997 6.49992C9.99997 7.41992 9.25331 8.16658 8.33331 8.16658Z" fill="white"/>
</g>
</svg>
