<svg width="17" height="17" viewBox="0 0 17 17" fill="none" xmlns="http://www.w3.org/2000/svg">
<g id="tel">
<path id="Vector" d="M13.1533 10.6733L11.46 10.4799C11.0533 10.4333 10.6533 10.5733 10.3667 10.8599L9.14001 12.0866C7.25334 11.1266 5.70667 9.58659 4.74667 7.69326L5.98001 6.45992C6.26667 6.17326 6.40667 5.77326 6.36001 5.36659L6.16667 3.68659C6.08667 3.01326 5.52001 2.50659 4.84001 2.50659H3.68667C2.93334 2.50659 2.30667 3.13326 2.35334 3.88659C2.70667 9.57992 7.26001 14.1266 12.9467 14.4799C13.7 14.5266 14.3267 13.8999 14.3267 13.1466V11.9933C14.3333 11.3199 13.8267 10.7533 13.1533 10.6733Z" fill="white"/>
</g>
</svg>
